<svg xmlns="http://www.w3.org/2000/svg"><symbol id="mecha-stilts" viewBox="0 0 256 256"><path d="M77.8 146.7h48.4v19.98H77.8zm48.4-17.1V93.2l-25.9 36.4h25.9zm3.6-40.1v40.1h49.7a53.6 53.6 0 0 0-49.7-40.1zm0 57.2h8.1v19.98h-8.1zm-5.4-57.1c-23 1.5-42.3 18.2-47.9 40h19.3z"/><path d="M128 18.4L33.1 73.2v109.6l94.9 54.8 94.9-54.8V73.2zm77.6 128.3h-23.8v21.8a1.7 1.7 0 0 1-1.8 1.8H76a1.7 1.7 0 0 1-1.8-1.8v-21.8H50.4a1.8 1.8 0 0 1 0-3.6h13.5v-11.7a1.7 1.7 0 0 1 1.8-1.8h7a57.1 57.1 0 0 1 55.1-43.7c.2-.2.4-.2.7 0 26.7.1 48.8 18.9 54.8 43.7h7a1.7 1.7 0 0 1 1.8 1.8v11.7h13.5a1.8 1.8 0 1 1 0 3.6z"/><path d="M67.5 133.2h121v9.9h-121zm74 13.5h36.7v19.98h-36.7z"/></symbol><symbol id="space-bubbles" viewBox="0 0 256 256"><path d="M101.8 151.1H89.9L74 169.8l2.6 3.6 30.4-16-5.2-6.3zm-22-12.9h98.5v9.36H79.8zm86-3.6a42.3 42.3 0 0 0 2.2-13.7 39 39 0 0 0-77.9 0c0 4.7.3 9.5 2.1 13.7zm-73.4 34.7h24.5l-7.4-9-17.1 9zm61.9-18.2l-5.4 6.3 30.6 16 2.5-3.4-15.8-18.9h-11.9z"/><path d="M128 18.4L33.1 73.2v109.6l94.9 54.8 94.9-54.8V73.2zm57.6 152.5l-4.1 6a1.8 1.8 0 0 1-2.3.5l-8.7-4.5H85.4l-8.7 4.5a1.9 1.9 0 0 1-2.3-.5l-4.1-6a1.8 1.8 0 0 1 .1-2.1l15-17.7H78a1.7 1.7 0 0 1-1.8-1.8v-12.9a1.7 1.7 0 0 1 1.8-1.8h10.4a53.3 53.3 0 0 1-1.9-13.7 42.6 42.6 0 1 1 83.1 13.7h10.5a1.7 1.7 0 0 1 1.8 1.8v12.9a1.7 1.7 0 0 1-1.8 1.8h-9.2l14.7 17.7a1.7 1.7 0 0 1 0 2.1z"/><path d="M139.2 169.3h24.5l-17.1-9-7.4 9zm-32.8-18.2l15.2 18.2h12.9l15.1-18.2h-43.2z"/></symbol><symbol id="super-domes" viewBox="0 0 256 256"><path d="M100.6 159.9h18v11.34h-18zm21.6 0h11.5v11.34h-11.5zm5.8-75.1c-21.1 0-38.7 12.8-39.6 36h79.2c-.9-23.2-18.5-36-39.6-36zm-42.5 75.1H97v11.34H85.5zm51.9 0h18v11.34h-18zm21.6 0h11.5v11.34H159z"/><path d="M128 18.4L33.1 73.2v109.6l94.9 54.8 94.9-54.8V73.2zm56.9 139.7a1.7 1.7 0 0 1-1.8 1.8h-9v11.3h9a1.8 1.8 0 1 1 0 3.6H72.9a1.8 1.8 0 0 1 0-3.6h9v-11.3h-9a1.7 1.7 0 0 1-1.8-1.8v-35.5a1.7 1.7 0 0 1 1.8-1.8h11.9c.9-25.6 20-39.6 43.2-39.6s42.3 14 43.2 39.6h11.9a1.7 1.7 0 0 1 1.8 1.8z"/><path d="M74.7 156.3h106.6v-31.9H74.7zm52.4-12.3H171a1.8 1.8 0 1 1 0 3.6h-43.9a1.8 1.8 0 0 1 0-3.6z"/></symbol></svg>